<svg width="143" height="143" viewBox="0 0 143 143" fill="none" xmlns="http://www.w3.org/2000/svg">
<path d="M103.846 109.098V140.423L16.4849 89.9796V58.6548L27.3964 64.9587V83.7559L92.9229 121.579V102.794L103.846 109.098Z" stroke="#AFAEAE" stroke-width="1.14617" stroke-linecap="round" stroke-linejoin="round"/>
<path d="M126.768 97.6367V128.962L103.844 140.423V109.098L109.323 106.359L115.845 103.104L126.768 97.6367Z" stroke="#AFAEAE" stroke-width="1.14617" stroke-linecap="round" stroke-linejoin="round"/>
<path d="M126.768 97.6365L115.845 103.104L109.323 106.359L103.844 109.098L92.9214 102.794L98.4001 100.055L115.845 91.3325L126.768 97.6365Z" stroke="#AFAEAE" stroke-width="1.14617" stroke-linecap="round" stroke-linejoin="round"/>
<path d="M98.4007 100.055L92.922 102.794V121.58L27.3955 83.7566L50.3189 72.2949L54.6973 74.828V86.9888L65.6203 93.2927L76.91 87.6421L98.4007 100.055Z" stroke="#AFAEAE" stroke-width="1.14617" stroke-linecap="round" stroke-linejoin="round"/>
<path d="M50.3189 53.4976V72.2947L27.3955 83.7564V64.9593L50.3189 53.4976Z" stroke="#AFAEAE" stroke-width="1.14617" stroke-linecap="round" stroke-linejoin="round"/>
<path d="M50.3198 53.4968L27.3964 64.9585L16.4849 58.6546L39.4082 47.1929L50.3198 53.4968Z" stroke="#AFAEAE" stroke-width="1.14617" stroke-linecap="round" stroke-linejoin="round"/>
<path d="M54.6974 35.9277V36.9249L40.5078 44.0197L54.6974 35.9277Z" stroke="#AFAEAE" stroke-width="1.14617" stroke-linecap="round" stroke-linejoin="round"/>
<path d="M87.4658 62.0483L79.8209 66.7132L77.6202 62.9193L65.6198 42.231V93.2928L54.6968 86.9889V35.927L40.5073 44.019L32.8623 30.5171L60.1641 14.9521L60.8632 16.1556L68.6457 29.5887L77.6202 45.062L87.4658 62.0483Z" stroke="#AFAEAE" stroke-width="1.14617" stroke-linecap="round" stroke-linejoin="round"/>
<path d="M88.5425 62.3572V81.8306L76.9089 87.6417L65.6191 93.2923V42.2305L77.6195 62.9188L79.8202 66.7126L88.5425 62.3572Z" stroke="#AFAEAE" stroke-width="1.14617" stroke-linecap="round" stroke-linejoin="round"/>
<path d="M110.39 50.5869L102.745 55.2518L88.5436 62.3581L79.8213 66.7135L87.4662 62.0486L88.5436 61.5099L102.366 54.5985L110.39 50.5869Z" stroke="#AFAEAE" stroke-width="1.14617" stroke-linecap="round" stroke-linejoin="round"/>
<path d="M110.39 50.5863L102.367 54.5979L88.5437 61.5093L87.4663 62.048L77.6207 45.0618L68.6462 29.5885L60.8637 16.1554L60.1646 14.9519L83.0879 3.49023L110.39 50.5863Z" stroke="#AFAEAE" stroke-width="1.14617" stroke-linecap="round" stroke-linejoin="round"/>
</svg>
